<svg xmlns="http://www.w3.org/2000/svg" version="1.1" xmlns:xlink="http://www.w3.org/1999/xlink" viewBox="0 0 700 700" style="overflow: hidden; display: block;" width="700" height="700"><defs></defs><g id="two-0" transform="matrix(1 0 0 1 0 0)" opacity="1"><path transform="matrix(1 0 0 1 350 350)" id="two-298" d="M 255.108903 56.153715 C 257.902799 74.607723 241.72697 91.737606 237.660831 109.953609 C 232.985648 130.898085 240.362855 155.956139 229.512981 174.471232 C 219.148843 192.157426 199.454957 206.480771 179.550654 211.383371 C 155.719083 217.25329 128.505586 190.125575 106.04754 200.02688 C 86.619585 208.59228 82.120619 235.885176 70.41071 253.596459 C 53.063225 279.834594 49.486632 331.745114 18.068556 333.254909 C -13.693467 334.781232 -10.851033 262.703979 -42.324732 258.16944 C -75.621082 253.372304 -96.578711 332.575247 -126.040157 316.336939 C -166.391486 294.096439 -86.116644 208.172357 -119.908378 176.851625 C -138.560625 159.563313 -171.273952 189.845352 -196.423041 186.061787 C -219.590334 182.576374 -254.162893 179.531086 -261.291755 157.214032 C -271.368779 125.667695 -202.186012 102.958496 -210.216378 70.830144 C -216.478132 45.777751 -273.354031 55.688174 -277.051512 30.131167 C -280.550072 5.949111 -239.021788 -3.273311 -227.319441 -24.72248 C -219.535229 -38.990121 -217.295008 -56.269543 -214.542342 -72.287732 C -211.501135 -89.984984 -216.502216 -109.683081 -210.30557 -126.536663 C -204.244672 -143.021044 -193.502678 -159.605445 -179.090988 -169.643994 C -163.948011 -180.191925 -137.528837 -170.944759 -125.235542 -184.708605 C -104.695029 -207.70622 -133.438558 -256.517832 -110.348878 -276.9548 C -94.389001 -291.081089 -65.865585 -286.638019 -45.809469 -279.425396 C -21.607023 -270.72166 -13.380955 -227.141 12.336074 -227.525501 C 43.701119 -227.994446 49.986366 -294.224536 81.327593 -292.915518 C 104.303829 -291.955878 107.817616 -252.427876 127.731691 -240.927529 C 146.808319 -229.910805 178.734099 -244.030495 193.084571 -227.316732 C 209.744851 -207.912773 183.389137 -171.435952 197.226399 -149.927611 C 209.2312 -131.267608 237.980732 -130.519637 256.836932 -118.825419 C 279.626074 -104.692072 323.113368 -97.803568 322.528832 -70.993965 C 321.605058 -28.625251 223.330867 -41.652045 215.516234 -0.000001 C 211.335209 22.284888 251.714831 33.735475 255.108903 56.153715 Z " fill="#2F393A" stroke="undefined" stroke-width="1" stroke-opacity="1" fill-opacity="1" visibility="visible" stroke-linecap="butt" stroke-linejoin="miter" stroke-miterlimit="4"></path></g></svg>