<svg xmlns="http://www.w3.org/2000/svg" version="1.1" xmlns:xlink="http://www.w3.org/1999/xlink" xmlns:svgjs="http://svgjs.dev/svgjs" viewBox="0 0 800 800" opacity="1"><defs><filter id="bbburst-blur-1" x="-100%" y="-100%" width="400%" height="400%"><feGaussianBlur in="SourceGraphic" stdDeviation="1"></feGaussianBlur></filter><filter id="bbburst-blur-2" x="-100%" y="-100%" width="400%" height="400%"><feGaussianBlur in="SourceGraphic" stdDeviation="2"></feGaussianBlur></filter><filter id="bbburst-blur-3" x="-100%" y="-100%" width="400%" height="400%"><feGaussianBlur in="SourceGraphic" stdDeviation="4"></feGaussianBlur></filter><filter id="bbburst-blur-4" x="-100%" y="-100%" width="400%" height="400%"><feGaussianBlur in="SourceGraphic" stdDeviation="12"></feGaussianBlur></filter><symbol id="bbburst-shape-1" viewBox="0 0 194 167"><path d="m97 0 96.129 166.5H.871L97 0Z"></path></symbol><symbol id="bbburst-shape-5" viewBox="0 0 145 145"><circle cx="72.5" cy="72.5" r="72.5"></circle></symbol><symbol id="bbburst-shape-7" viewBox="0 0 139 124"><path fill-rule="evenodd" clip-rule="evenodd" d="M70.1641 15.0917C54.6093.764854 37.8293-2.10782 24.4032 2.82615 10.3804 7.97941.763366 21.4591 1.00047 37.0608c.1068 7.0273 2.86132 13.7317 7.0039 20.2001C12.1442 63.7249 17.853 70.2322 24.25 76.9024c3.8209 3.9842 7.8871 8.0312 12.0767 12.201h.0001c10.0335 9.9862 20.7748 20.6766 30.5497 32.8956 1.38 1.725 3.8972 2.005 5.6223.624.6706-.536 1.1228-1.244 1.3439-2.011 9.5768-11.748 20.0328-22.0735 29.8163-31.7351 4.19-4.1373 8.256-8.1528 12.078-12.1062 6.396-6.6176 12.106-13.0752 16.247-19.4911 4.144-6.4196 6.905-13.0811 7.012-20.0691.237-15.5124-9.399-28.8902-23.411-33.99923-13.32-4.85681-29.9542-2.08621-45.4209 11.88043Zm-3.7351 7.4919C52.1278 8.44857 37.6826 6.46918 27.1626 10.3352 16.2859 14.3323 8.8148 24.7824 8.99955 36.9392c.07575 4.9844 2.03755 10.2234 5.74165 16.0072 3.707 5.7881 8.9752 11.8418 15.2827 18.4187 3.5798 3.7328 7.4978 7.6329 11.6 11.7163 9.0476 9.0063 18.9911 18.9046 28.1786 29.8666 9.2999-11.068 19.4036-21.0473 28.5839-30.1144l.0007-.0006c4.1019-4.0508 8.0189-7.9196 11.5979-11.6222 6.307-6.5252 11.573-12.5298 15.278-18.2697 3.703-5.7362 5.658-10.924 5.734-15.8531.184-12.0276-7.267-22.3914-18.153-26.3608-10.71-3.90518-25.4722-1.80041-40.0023 12.867-1.5547 1.5694-4.0874 1.5813-5.6568.0265-.3146-.3116-.5666-.6625-.7559-1.0371Z"></path></symbol><symbol id="bbburst-shape-10" viewBox="0 0 145 145"><circle cx="72.5" cy="72.5" r="61.5" fill="none" stroke-width="22"></circle></symbol><symbol id="bbburst-shape-12" viewBox="0 0 170 151"><path d="M69.3728 54.2122 85 10.0031l15.627 44.2091c1.413 3.9958 5.19 6.6672 9.428 6.6673h49.312l-39.149 26.1447c-3.803 2.5401-5.399 7.3367-3.875 11.6488l15.179 42.94-40.9683-27.36c-3.3621-2.245-7.7453-2.245-11.1074 0l-40.9682 27.36 15.1785-42.94c1.5243-4.3121-.0712-9.1087-3.8746-11.6488L10.6333 60.8795h49.3112c4.2381-.0001 8.0159-2.6715 9.4283-6.6673Z" stroke-width="12"></path></symbol></defs><use xlink:href="#bbburst-shape-5" width="22.958667704026045" opacity="0.7115439366127974" transform="matrix(0.8711136205936039,0.4910815207440642,-0.4910815207440642,0.8711136205936039,353.4691114189932,-118.91096121706482)" fill="#219e23"></use><use xlink:href="#bbburst-shape-7" width="42.82671363108641" opacity="0.5389789598214096" transform="matrix(0.7813454052719978,0.6240988364516773,-0.6240988364516773,0.7813454052719978,359.8127087326828,117.16975948444906)" fill="#219e23" filter="url(#bbburst-blur-1)"></use><use xlink:href="#bbburst-shape-7" width="26.439158346512073" opacity="0.6229197460921152" transform="matrix(0.994517822818555,0.10456720373157677,-0.10456720373157677,0.994517822818555,372.96965261100803,-245.61863550350293)" fill="#3db2ff" filter="url(#bbburst-blur-1)"></use><use xlink:href="#bbburst-shape-5" width="28.068789507890735" opacity="0.7138605731718679" transform="matrix(0.7611761347019091,0.648545211963099,-0.648545211963099,0.7611761347019091,533.038117621136,-281.20333861096077)" fill="#fee440"></use><use xlink:href="#bbburst-shape-10" width="43.60462255808629" opacity="0.1981821414478906" transform="matrix(0.972140998038749,0.2343968428375796,-0.2343968428375796,0.972140998038749,365.1862905637394,352.5477594122995)" fill="none" stroke="#3db2ff" filter="url(#bbburst-blur-3)"></use><use xlink:href="#bbburst-shape-12" width="26.353510559370022" opacity="0.7048883981837759" transform="matrix(0.8908700564654798,0.45425823326957193,-0.45425823326957193,0.8908700564654798,256.4989559565113,-80.23015620923763)" fill="none" stroke="#3db2ff"></use><use xlink:href="#bbburst-shape-12" width="16.927959613284216" opacity="0.767679761770705" transform="matrix(0.9893370654434148,-0.14564398696757896,0.14564398696757896,0.9893370654434148,137.556205918623,-283.72493147980106)" fill="none" stroke="#3db2ff"></use><use xlink:href="#bbburst-shape-1" width="31.25290598522087" opacity="0.6299985452086385" transform="matrix(0.9120438796267432,0.41009262567790566,-0.41009262567790566,0.9120438796267432,256.49734617552355,-16.915161025006853)" fill="#219e23" filter="url(#bbburst-blur-1)"></use><use xlink:href="#bbburst-shape-12" width="17.384160596935256" opacity="0.875479733466493" transform="matrix(0.736501916096807,-0.6764354570731281,0.6764354570731281,0.736501916096807,-230.07769512428553,-173.40197950987294)" fill="none" stroke="#fee440"></use><use xlink:href="#bbburst-shape-5" width="42.399372907447514" opacity="0.461460741657968" transform="matrix(0.8809789519718186,-0.4731554566763825,0.4731554566763825,0.8809789519718186,18.632476070045016,146.19832753050213)" fill="#ee5a26" filter="url(#bbburst-blur-1)"></use><use xlink:href="#bbburst-shape-12" width="49.31443356015364" opacity="0.21288476603510353" transform="matrix(0.9494132190969783,0.3140295199561868,-0.3140295199561868,0.9494132190969783,845.1795228243875,-127.63874961189941)" fill="none" stroke="#3db2ff" filter="url(#bbburst-blur-3)"></use><use xlink:href="#bbburst-shape-1" width="52.14257583811246" opacity="0.18335772663923344" transform="matrix(0.9249486781732517,-0.3800920187869703,0.3800920187869703,0.9249486781732517,533.8373495230041,43.54737298210733)" fill="#ee5a26" filter="url(#bbburst-blur-3)"></use><use xlink:href="#bbburst-shape-12" width="17.070715569203763" opacity="0.6482530625182465" transform="matrix(0.9923204036313423,0.12369404406409308,-0.12369404406409308,0.9923204036313423,66.76576462348042,-47.21178749372234)" fill="none" stroke="#ee5a26" filter="url(#bbburst-blur-1)"></use><use xlink:href="#bbburst-shape-5" width="17.527108499871733" opacity="0.8256742807770685" transform="matrix(0.9173450202463309,0.39809309693746103,-0.39809309693746103,0.9173450202463309,270.18011820432025,-243.019019017544)" fill="#3db2ff"></use><use xlink:href="#bbburst-shape-7" width="33.20440092193555" opacity="0.4292003956981362" transform="matrix(0.7742899659543221,0.6328309795059458,-0.6328309795059458,0.7742899659543221,284.24030416431896,248.7913330843789)" fill="#ee5a26" filter="url(#bbburst-blur-2)"></use><use xlink:href="#bbburst-shape-12" width="16.920820088544172" opacity="0.8544180132237513" transform="matrix(0.9802036574231933,0.19799189370829112,-0.19799189370829112,0.9802036574231933,197.7555201556122,-322.3422099201348)" fill="none" stroke="#ee5a26"></use><use xlink:href="#bbburst-shape-1" width="10.672349742422552" opacity="0.8780037100142533" transform="matrix(0.8196864320340345,0.5728124938750151,-0.5728124938750151,0.8196864320340345,238.8497716691337,-209.74195670702193)" fill="#3db2ff"></use><use xlink:href="#bbburst-shape-5" width="22.001241270450087" opacity="0.8089455247440583" transform="matrix(0.9886939106953684,0.14994782743974275,-0.14994782743974275,0.9886939106953684,205.60272905081834,-287.538679711866)" fill="#219e23"></use><use xlink:href="#bbburst-shape-7" width="41.605355173705725" opacity="0.5023716577331645" transform="matrix(0.9959247130352908,-0.09018850240232203,0.09018850240232203,0.9959247130352908,230.48594475323983,9.730785969029341)" fill="#ee5a26" filter="url(#bbburst-blur-1)"></use><use xlink:href="#bbburst-shape-7" width="20.224075124825042" opacity="0.8729962122945891" transform="matrix(0.9600382930378522,0.2798686761696761,-0.2798686761696761,0.9600382930378522,186.42717641252557,-291.84052307452424)" fill="#219e23"></use><use xlink:href="#bbburst-shape-10" width="27.917959687611432" opacity="0.6853815755413623" transform="matrix(0.9944546095945743,0.10516667464602472,-0.10516667464602472,0.9944546095945743,249.50221805882893,-175.63529294648345)" fill="none" stroke="#219e23"></use><use xlink:href="#bbburst-shape-5" width="10.65670249619444" opacity="0.9428402384193105" transform="matrix(0.711462105449076,-0.7027244641464875,0.7027244641464875,0.711462105449076,-264.59064951359903,-227.40311503137616)" fill="#3db2ff"></use><use xlink:href="#bbburst-shape-5" width="21.66643976232485" opacity="0.6561833119251965" transform="matrix(0.971970672488674,-0.23510213061968402,0.23510213061968402,0.971970672488674,228.569808180319,-301.2265787821391)" fill="#ee5a26"></use><use xlink:href="#bbburst-shape-5" width="31.255078825244873" opacity="0.23751213324031262" transform="matrix(0.8866055710399139,-0.46252628184892175,0.46252628184892175,0.8866055710399139,557.1542026147673,-248.31199832471032)" fill="#219e23" filter="url(#bbburst-blur-3)"></use><use xlink:href="#bbburst-shape-7" width="6.49974566661629" opacity="0.9823212450140305" transform="matrix(0.9597466457695774,-0.2808671855771788,0.2808671855771788,0.9597466457695774,-100.68603199948419,-373.3163022715133)" fill="#219e23"></use><use xlink:href="#bbburst-shape-7" width="35.348475258748735" opacity="0.5546790465667606" transform="matrix(0.9316588292675552,0.363334316914613,-0.363334316914613,0.9316588292675552,556.0943099243791,-253.879858101242)" fill="#3db2ff" filter="url(#bbburst-blur-1)"></use><use xlink:href="#bbburst-shape-5" width="52.62976001488481" opacity="0.1014688499170251" transform="matrix(0.9756359061852936,0.21939594016754493,-0.21939594016754493,0.9756359061852936,579.846580851891,338.32964436711865)" fill="#3db2ff" filter="url(#bbburst-blur-3)"></use><use xlink:href="#bbburst-shape-1" width="24.030706352270762" opacity="0.5709953879170719" transform="matrix(0.9893076677697559,-0.14584354113901088,0.14584354113901088,0.9893076677697559,357.9835609654492,-367.7321182411669)" fill="#219e23" filter="url(#bbburst-blur-1)"></use><use xlink:href="#bbburst-shape-5" width="24.50277308610006" opacity="0.6538502060733797" transform="matrix(0.9361993797141176,0.35146937480085144,-0.35146937480085144,0.9361993797141176,414.46785442685734,-182.83896883093635)" fill="#219e23"></use><use xlink:href="#bbburst-shape-7" width="15.246365207046066" opacity="0.907480764281426" transform="matrix(0.9999383438728984,-0.011104433921869482,0.011104433921869482,0.9999383438728984,33.481231091825705,-319.394125304109)" fill="#fee440"></use><use xlink:href="#bbburst-shape-7" width="71.44244644767294" opacity="-0.008350820201427522" transform="matrix(0.7142672462090175,0.6998730606281305,-0.6998730606281305,0.7142672462090175,963.130879460452,406.23359692374)" fill="#ee5a26" filter="url(#bbburst-blur-3)"></use><use xlink:href="#bbburst-shape-12" width="54.24180523822392" opacity="0.08697396281948466" transform="matrix(0.9895490384582109,0.14419674228785592,-0.14419674228785592,0.9895490384582109,764.1527009710678,144.1315261783651)" fill="none" stroke="#219e23" filter="url(#bbburst-blur-3)"></use><use xlink:href="#bbburst-shape-10" width="31.900813890367314" opacity="0.5031028963862376" transform="matrix(0.8067177795964796,-0.5909369036394037,0.5909369036394037,0.8067177795964796,244.65516368367582,-258.7445217296503)" fill="none" stroke="#219e23" filter="url(#bbburst-blur-1)"></use><use xlink:href="#bbburst-shape-1" width="48.6096744898506" opacity="0.41793498532473083" transform="matrix(0.7108278454508675,0.7033660314030509,-0.7033660314030509,0.7108278454508675,666.730910942166,118.88984079231022)" fill="#3db2ff" filter="url(#bbburst-blur-2)"></use><use xlink:href="#bbburst-shape-7" width="19.35905544910426" opacity="0.7992312007040976" transform="matrix(0.9927814840739033,-0.11993717055199424,0.11993717055199424,0.9927814840739033,-37.91937663381802,-196.1531502446568)" fill="#fee440"></use><use xlink:href="#bbburst-shape-7" width="18.721769964927887" opacity="0.7805765064685819" transform="matrix(0.747452140794154,-0.6643156608286728,0.6643156608286728,0.747452140794154,-145.54015023517252,-113.95605833118523)" fill="#fee440"></use><use xlink:href="#bbburst-shape-5" width="14.782623354319943" opacity="0.8945717436074504" transform="matrix(0.7702856584333369,0.637698992011059,-0.637698992011059,0.7702856584333369,338.9767450293685,-257.25207589764716)" fill="#219e23"></use><use xlink:href="#bbburst-shape-1" width="22.024242559461968" opacity="0.8011017595469483" transform="matrix(0.8817068812167229,-0.4717976002642231,0.4717976002642231,0.8817068812167229,-124.49988931096298,-162.80837391323294)" fill="#fee440"></use><use xlink:href="#bbburst-shape-5" width="17.317144454179363" opacity="0.8386249470046448" transform="matrix(0.914027698459284,0.4056517797929947,-0.4056517797929947,0.914027698459284,231.62707227785512,-227.4561151622421)" fill="#3db2ff"></use><use xlink:href="#bbburst-shape-7" width="21.382258796698547" opacity="0.5938213937609738" transform="matrix(0.9919803303401282,-0.12639234240368408,0.12639234240368408,0.9919803303401282,-17.58218193706768,8.387446197231725)" fill="#fee440" filter="url(#bbburst-blur-1)"></use><use xlink:href="#bbburst-shape-1" width="30.728755751992082" opacity="0.612436512961356" transform="matrix(0.9259644340174118,-0.37761073466575884,0.37761073466575884,0.9259644340174118,110.69938872667092,-92.41878651446348)" fill="#ee5a26" filter="url(#bbburst-blur-1)"></use><use xlink:href="#bbburst-shape-10" width="18.499196111785107" opacity="0.6883732226424875" transform="matrix(0.9196403738034945,-0.39276148343564565,0.39276148343564565,0.9196403738034945,-125.49472719765203,-55.189379296615584)" fill="none" stroke="#219e23"></use><use xlink:href="#bbburst-shape-10" width="62.51560453432354" opacity="0.29608240885448056" transform="matrix(0.9782663299771825,-0.20735232729095252,0.20735232729095252,0.9782663299771825,352.26616184207205,142.9473342734359)" fill="none" stroke="#fee440" filter="url(#bbburst-blur-2)"></use><use xlink:href="#bbburst-shape-12" width="11.088224569013528" opacity="0.8936887791118202" transform="matrix(0.9664128228160517,-0.25699466122219505,0.25699466122219505,0.9664128228160517,-3.671111604630255,-365.564998799178)" fill="none" stroke="#219e23"></use><use xlink:href="#bbburst-shape-7" width="44.251689282632604" opacity="0.3374502690681799" transform="matrix(0.9966200213565142,0.08214945545371123,-0.08214945545371123,0.9966200213565142,650.2393068537355,-227.5769946983362)" fill="#219e23" filter="url(#bbburst-blur-2)"></use><use xlink:href="#bbburst-shape-7" width="30.66565416160114" opacity="0.5185138998004408" transform="matrix(0.7534381462086033,-0.657518790482632,0.657518790482632,0.7534381462086033,-228.28685308547088,188.01979968372996)" fill="#ee5a26" filter="url(#bbburst-blur-1)"></use><use xlink:href="#bbburst-shape-12" width="20.84741542768421" opacity="0.7646954573333424" transform="matrix(0.711655372283193,0.7025287404088675,-0.7025287404088675,0.711655372283193,329.29237924091365,-63.38826473824466)" fill="none" stroke="#3db2ff"></use><use xlink:href="#bbburst-shape-7" width="37.90521860936567" opacity="0.43080011285375885" transform="matrix(0.8718486293939797,-0.4897754255001358,0.4897754255001358,0.8718486293939797,-65.92644611338446,210.58738628396935)" fill="#3db2ff" filter="url(#bbburst-blur-2)"></use><use xlink:href="#bbburst-shape-7" width="23.95279135697522" opacity="0.7428121681455115" transform="matrix(0.8067251496255488,0.5909268423092964,-0.5909268423092964,0.8067251496255488,336.7610946162459,-97.40249561287533)" fill="#219e23"></use><use xlink:href="#bbburst-shape-5" width="17.618239045639253" opacity="0.8188513430921636" transform="matrix(0.7298770655073604,-0.6835784294770895,0.6835784294770895,0.7298770655073604,-99.76970199451978,-266.38468419456467)" fill="#ee5a26"></use><use xlink:href="#bbburst-shape-5" width="23.94084746803274" opacity="0.6643577347490364" transform="matrix(0.9698320610823264,0.24377402096369225,-0.24377402096369225,0.9698320610823264,238.0015778207254,-91.65039412508514)" fill="#3db2ff"></use><use xlink:href="#bbburst-shape-5" width="52.57135829479473" opacity="0.4520626228285791" transform="matrix(0.9061247047872293,0.42301066106453694,-0.42301066106453694,0.9061247047872293,669.1131437737023,-212.49326283979045)" fill="#3db2ff" filter="url(#bbburst-blur-1)"></use><use xlink:href="#bbburst-shape-5" width="35.57682735545351" opacity="0.24209333923644827" transform="matrix(0.8204544967220708,0.5717118319647876,-0.5717118319647876,0.8204544967220708,313.392951616202,413.0214132778449)" fill="#3db2ff" filter="url(#bbburst-blur-3)"></use><use xlink:href="#bbburst-shape-1" width="57.24446050764992" opacity="0.23269243082340707" transform="matrix(0.807016271168156,0.5905292017079641,-0.5905292017079641,0.807016271168156,615.1317630395455,313.88486320810296)" fill="#219e23" filter="url(#bbburst-blur-3)"></use><use xlink:href="#bbburst-shape-5" width="19.26501410120105" opacity="0.7513630325769326" transform="matrix(0.9634946868378431,0.26772745177744983,-0.26772745177744983,0.9634946868378431,335.73582532473426,-315.784657480001)" fill="#fee440"></use><use xlink:href="#bbburst-shape-12" width="17.137322168334865" opacity="0.7383327953997332" transform="matrix(0.9569511829881353,0.29024891623847354,-0.29024891623847354,0.9569511829881353,129.9790567225346,-124.56244698550637)" fill="none" stroke="#3db2ff"></use><use xlink:href="#bbburst-shape-1" width="16.648094804107487" opacity="0.6522220186324086" transform="matrix(0.9561020329712704,-0.29303396142461696,0.29303396142461696,0.9561020329712704,221.72793734510776,-355.19875647766645)" fill="#3db2ff"></use><use xlink:href="#bbburst-shape-12" width="37.94430503018302" opacity="0.5235923838739722" transform="matrix(0.884076427381958,0.46734234833530064,-0.46734234833530064,0.884076427381958,599.1411984669952,-155.2647999990981)" fill="none" stroke="#3db2ff" filter="url(#bbburst-blur-1)"></use><use xlink:href="#bbburst-shape-12" width="67.5739270618366" opacity="0.16876122354682532" transform="matrix(0.9900763558323444,-0.140530457985964,0.140530457985964,0.9900763558323444,502.5035313018159,191.92751240898485)" fill="none" stroke="#fee440" filter="url(#bbburst-blur-3)"></use><use xlink:href="#bbburst-shape-5" width="31.046291048829286" opacity="0.6119629552003127" transform="matrix(0.8014088858281074,0.5981168763007373,-0.5981168763007373,0.8014088858281074,451.1812637271853,-13.259124597607126)" fill="#219e23" filter="url(#bbburst-blur-1)"></use><use xlink:href="#bbburst-shape-5" width="44.63474773725119" opacity="0.32193509465545045" transform="matrix(0.9848156328128123,0.17360348316638158,-0.17360348316638158,0.9848156328128123,723.7405389760853,-348.6010817238769)" fill="#fee440" filter="url(#bbburst-blur-2)"></use><use xlink:href="#bbburst-shape-7" width="63.09517603816339" opacity="0.3743744083643591" transform="matrix(0.762230745205083,0.6473054078749101,-0.6473054078749101,0.762230745205083,565.031973078837,205.84287886952234)" fill="#ee5a26" filter="url(#bbburst-blur-2)"></use><use xlink:href="#bbburst-shape-1" width="26.24651939158255" opacity="0.573222119202911" transform="matrix(0.7099575194829459,-0.7042445033719628,0.7042445033719628,0.7099575194829459,62.6512295554578,-35.809979033041856)" fill="#3db2ff" filter="url(#bbburst-blur-1)"></use><use xlink:href="#bbburst-shape-1" width="33.722826172396466" opacity="0.4191124558205067" transform="matrix(0.9244987073044091,0.38118517834836724,-0.38118517834836724,0.9244987073044091,714.7712873187514,-317.3693275416335)" fill="#3db2ff" filter="url(#bbburst-blur-2)"></use><use xlink:href="#bbburst-shape-10" width="39.12189248303553" opacity="0.569258147796215" transform="matrix(0.9750690473671115,-0.22190167387064375,0.22190167387064375,0.9750690473671115,81.78957841228465,1.0706159870659917)" fill="none" stroke="#fee440" filter="url(#bbburst-blur-1)"></use><use xlink:href="#bbburst-shape-10" width="26.37737505953143" opacity="0.7155669470819912" transform="matrix(0.9855933117966743,0.1691325626296234,-0.1691325626296234,0.9855933117966743,294.65679050608594,-243.82137618229117)" fill="none" stroke="#3db2ff"></use><use xlink:href="#bbburst-shape-7" width="11.154364182703251" opacity="0.9544479657635816" transform="matrix(0.8917723061312,-0.45248442406058736,0.45248442406058736,0.8917723061312,-144.08115806337224,-336.35461990168295)" fill="#219e23"></use><use xlink:href="#bbburst-shape-1" width="54.22103396717979" opacity="0.3170523481183437" transform="matrix(0.8184186950155831,0.5746223452398889,-0.5746223452398889,0.8184186950155831,822.4635602006506,-45.59046561928824)" fill="#3db2ff" filter="url(#bbburst-blur-2)"></use><use xlink:href="#bbburst-shape-7" width="12.797112783030535" opacity="0.9149869036418613" transform="matrix(0.7587640367661341,-0.6513655935880868,0.6513655935880868,0.7587640367661341,-251.69889542416195,-215.415712605411)" fill="#219e23"></use><use xlink:href="#bbburst-shape-1" width="25.63108874347045" opacity="0.7555259795898259" transform="matrix(0.9999035159452387,0.013890961102447377,-0.013890961102447377,0.9999035159452387,172.17552275473784,-234.06116422737486)" fill="#fee440"></use><use xlink:href="#bbburst-shape-5" width="59.46660108397556" opacity="0.30715159376182544" transform="matrix(0.8754136867460386,0.4833744687689954,-0.4833744687689954,0.8754136867460386,718.6068684177263,55.13188761652896)" fill="#3db2ff" filter="url(#bbburst-blur-2)"></use><use xlink:href="#bbburst-shape-12" width="37.04641258259922" opacity="0.4612750907987394" transform="matrix(0.8520668138423164,-0.5234330375020316,0.5234330375020316,0.8520668138423164,208.08287386955627,-11.03526472125418)" fill="none" stroke="#3db2ff" filter="url(#bbburst-blur-1)"></use><use xlink:href="#bbburst-shape-5" width="8.448819337100563" opacity="0.9658772889008705" transform="matrix(0.9592202815646726,-0.2826596034720741,0.2826596034720741,0.9592202815646726,-103.97665798813465,-351.0024945061141)" fill="#3db2ff"></use><use xlink:href="#bbburst-shape-12" width="31.30102882015553" opacity="0.33758686168933383" transform="matrix(0.9163489676019573,-0.4003805309637658,0.4003805309637658,0.9163489676019573,-94.92145878173655,297.2883337523921)" fill="none" stroke="#3db2ff" filter="url(#bbburst-blur-2)"></use><use xlink:href="#bbburst-shape-5" width="58.83773552634105" opacity="0.3241850256879154" transform="matrix(0.9998157106551954,-0.0191975187731791,0.0191975187731791,0.9998157106551954,196.3356417418216,234.86022197882613)" fill="#ee5a26" filter="url(#bbburst-blur-2)"></use><use xlink:href="#bbburst-shape-1" width="13.7327471359516" opacity="0.9263285183171818" transform="matrix(0.9686201474162067,-0.24854579058878878,0.24854579058878878,0.9686201474162067,-34.55450077196569,-368.0109247429303)" fill="#3db2ff"></use><use xlink:href="#bbburst-shape-5" width="37.79204064383265" opacity="0.5312737999105713" transform="matrix(0.8119584839151972,0.583715187739821,-0.583715187739821,0.8119584839151972,553.2643760870058,-8.096751634913915)" fill="#3db2ff" filter="url(#bbburst-blur-1)"></use><use xlink:href="#bbburst-shape-5" width="17.73833210573626" opacity="0.8583404344997806" transform="matrix(0.8297706058634791,-0.5581045974053206,0.5581045974053206,0.8297706058634791,-91.2382417705135,-301.55363182387663)" fill="#fee440"></use><use xlink:href="#bbburst-shape-7" width="12.715249280752545" opacity="0.925081139782549" transform="matrix(0.9685998424913631,-0.248624908498136,0.248624908498136,0.9685998424913631,-50.363302879703525,-335.29638398251086)" fill="#ee5a26"></use><use xlink:href="#bbburst-shape-7" width="19.47780523699698" opacity="0.8405029582730235" transform="matrix(0.9970803102959727,-0.07636003418076086,0.07636003418076086,0.9970803102959727,-12.71093538589258,-241.00104799380338)" fill="#219e23"></use><use xlink:href="#bbburst-shape-7" width="45.22126329463025" opacity="0.41877334888533957" transform="matrix(0.8915592950526043,-0.45290398916912095,0.45290398916912095,0.8915592950526043,311.7322922474997,-73.47484923466567)" fill="#fee440" filter="url(#bbburst-blur-2)"></use><use xlink:href="#bbburst-shape-1" width="22.3435652595876" opacity="0.6011778858423926" transform="matrix(0.881514036160623,-0.4721578168915643,0.4721578168915643,0.881514036160623,193.81267112075858,-276.63188865767825)" fill="#fee440" filter="url(#bbburst-blur-1)"></use><use xlink:href="#bbburst-shape-7" width="25.339250006205376" opacity="0.6983239424035782" transform="matrix(0.9836548587813979,0.18006420742542978,-0.18006420742542978,0.9836548587813979,340.63017050857377,-286.40437723247146)" fill="#3db2ff"></use><use xlink:href="#bbburst-shape-7" width="15.654254635944643" opacity="0.8100590712856153" transform="matrix(0.9998954914130573,0.014457048517613499,-0.014457048517613499,0.9998954914130573,177.14460327980103,-337.23551524838433)" fill="#3db2ff"></use><use xlink:href="#bbburst-shape-12" width="22.343349561252207" opacity="0.7708102418383409" transform="matrix(0.9881398116967329,-0.1535568707025029,0.1535568707025029,0.9881398116967329,155.51470093818625,-370.0906334106093)" fill="none" stroke="#219e23"></use></svg>