<svg xmlns="http://www.w3.org/2000/svg" version="1.1" xmlns:xlink="http://www.w3.org/1999/xlink" xmlns:svgjs="http://svgjs.dev/svgjs" viewBox="0 0 800 800"><defs><filter id="ssspot-filter" x="-20%" y="-20%" width="140%" height="140%" filterUnits="objectBoundingBox" primitiveUnits="userSpaceOnUse" color-interpolation-filters="sRGB">
	<feTurbulence type="turbulence" baseFrequency="0.022 0.218" numOctaves="2" seed="93" stitchTiles="stitch" x="0%" y="0%" width="100%" height="100%" result="turbulence"></feTurbulence>
	<feGaussianBlur stdDeviation="0 3" x="0%" y="0%" width="100%" height="100%" in="turbulence" edgeMode="duplicate" result="blur"></feGaussianBlur>
	<feDisplacementMap in="SourceGraphic" in2="blur" scale="32" xChannelSelector="R" yChannelSelector="B" x="0%" y="0%" width="100%" height="100%" result="displacementMap"></feDisplacementMap>
</filter></defs><rect width="100%" height="100%" fill="hsl(0, 0%, 100%)"></rect><g fill="#e0f3e0" filter="url(#ssspot-filter)"><circle r="9.428566067942333" cx="658.2525045021034" cy="168.49333722169197" opacity="0.29765534445855607"></circle><circle r="9.657636729805965" cx="390.5099559229526" cy="525.9051951300236" opacity="0.15210487094931444"></circle><circle r="8.162478343370118" cx="18.118929710278604" cy="349.9443665958657" opacity="0.9346494675572428"></circle><circle r="10.07960569573094" cx="424.25234849031034" cy="220.5954222692522" opacity="0.6898625479791597"></circle><circle r="7.843870815260961" cx="269.28965051836127" cy="712.0606916553954" opacity="0.6195194018592499"></circle><circle r="11.228549431711112" cx="76.78176992932852" cy="307.4399109082579" opacity="0.4868028271326924"></circle><circle r="6.232581175883608" cx="177.64139273169624" cy="713.6906397922951" opacity="0.845821954424749"></circle><circle r="7.6705095700712365" cx="258.9089669736767" cy="273.7152643251286" opacity="0.42546704270773106"></circle><circle r="8.216944499664676" cx="362.2505070421282" cy="774.1020745945145" opacity="0.9704455766220548"></circle><circle r="9.522766661037796" cx="639.3563574078601" cy="777.0833321209952" opacity="0.9972401454357773"></circle><circle r="8.854909325179532" cx="514.1977578356885" cy="527.0363879957175" opacity="0.7846329873762459"></circle><circle r="5.225959384113624" cx="551.4106921753422" cy="599.6105055547872" opacity="0.4591225646056516"></circle><circle r="6.94346018182136" cx="539.4924463603757" cy="216.12864591509205" opacity="0.656692020783049"></circle><circle r="12.290990223921348" cx="312.98069230423704" cy="171.0237737309089" opacity="0.38594415322576736"></circle><circle r="7.930429581811138" cx="405.5250228883186" cy="470.55805415913363" opacity="0.14298073006046594"></circle><circle r="12.27468158782452" cx="257.37425795612984" cy="398.06974457261276" opacity="0.1901470625765255"></circle><circle r="5.562241753822259" cx="290.82520057906237" cy="111.69915005374493" opacity="0.7676393585207633"></circle><circle r="9.513809130379146" cx="566.7629648473049" cy="403.6213202658421" opacity="0.5478245132838888"></circle><circle r="8.697742903738238" cx="388.07984309763197" cy="183.59277590829515" opacity="0.7425159497025552"></circle><circle r="9.052249163069346" cx="201.9274896920118" cy="191.7927182047096" opacity="0.14349296067884698"></circle><circle r="9.033781117499277" cx="564.2303094433843" cy="54.920667249524755" opacity="0.5937666774701694"></circle><circle r="11.454175096274657" cx="333.5333173905437" cy="355.35766251834207" opacity="0.7520768235778118"></circle><circle r="8.589893232369553" cx="690.581826994082" cy="29.714447935250192" opacity="0.16239011849397866"></circle><circle r="6.443401619981316" cx="451.09342413705156" cy="294.74512475611004" opacity="0.2718585429271252"></circle><circle r="8.538013506863928" cx="278.23761667378795" cy="548.3150990706171" opacity="0.43616063900239843"></circle><circle r="9.128606289507918" cx="683.1568950889325" cy="503.4243514363103" opacity="0.3393396118485312"></circle><circle r="11.23093435183512" cx="494.5401072855899" cy="649.0036234578962" opacity="0.953343501967896"></circle><circle r="9.589138414851872" cx="500.50314448028905" cy="421.0564609644781" opacity="0.9881563882909463"></circle><circle r="5.668306564300542" cx="151.74340114543878" cy="744.2231757638158" opacity="0.6407000176535403"></circle><circle r="5.7025351906954755" cx="21.457105289409967" cy="399.2612867147242" opacity="0.6078130237460656"></circle><circle r="8.248117540893846" cx="505.71425453998125" cy="470.7651155552027" opacity="0.5619762773136966"></circle><circle r="9.146751430773437" cx="314.9162111430118" cy="229.27019921643287" opacity="0.5660243671784272"></circle><circle r="7.454916673618259" cx="169.926559189359" cy="371.0485109364599" opacity="0.2620047722825185"></circle><circle r="12.756618729876818" cx="446.7894813753373" cy="692.2543807378829" opacity="0.6206008776890407"></circle><circle r="17.757937411221693" cx="566.0031738555805" cy="763.6722025997968" opacity="0.9541456181503742"></circle><circle r="13.811242860428322" cx="24.96618129023706" cy="480.93199966157107" opacity="0.9590399963728379"></circle><circle r="10.815332421963156" cx="285.7377565825672" cy="768.8917719127231" opacity="0.4985792362631801"></circle><circle r="14.146551502823115" cx="567.8844085350662" cy="333.1839167920351" opacity="0.18515723729164743"></circle><circle r="13.750937892739042" cx="78.69116961668647" cy="517.3687494655918" opacity="0.86157797898231"></circle><circle r="5.225004324351465" cx="45.75635874041947" cy="264.67040970540984" opacity="0.2650452152737756"></circle><circle r="6.082234921413672" cx="265.776544787894" cy="167.97407335466391" opacity="0.3936588437754227"></circle><circle r="9.366689241617673" cx="774.0139535377892" cy="520.8710992917124" opacity="0.8349067819169199"></circle><circle r="10.216115838963177" cx="114.60782289225412" cy="357.40703747219146" opacity="0.1952855165993861"></circle><circle r="6.704801547188292" cx="176.93062707187872" cy="458.1831055116766" opacity="0.3257626639196828"></circle><circle r="8.096092926679978" cx="41.41443626818755" cy="216.82531694562203" opacity="0.7378253045683902"></circle><circle r="5.4649174629633634" cx="752.3797780714609" cy="569.6621369616726" opacity="0.6052566073158934"></circle><circle r="15.096358785394344" cx="411.2778995522065" cy="747.8209418027706" opacity="0.8644556048008478"></circle><circle r="8.277379732108356" cx="171.1186555772979" cy="117.192505004948" opacity="0.7968347953924979"></circle><circle r="6.517122880727199" cx="577.7230561326154" cy="178.91116624220976" opacity="0.2839450891207578"></circle><circle r="10.904615290264386" cx="129.46715392719761" cy="189.70188295807105" opacity="0.7877297922705059"></circle><circle r="8.824807880836145" cx="122.24318068528201" cy="633.4966259466651" opacity="0.16532857167009302"></circle><circle r="5.96019279696318" cx="16.338336587123457" cy="80.34276845538399" opacity="0.344356377418538"></circle><circle r="13.739500908254456" cx="327.67036891727355" cy="711.2339343794146" opacity="0.15647899504905394"></circle><circle r="11.059422951732795" cx="434.42680848020086" cy="635.6732686721292" opacity="0.9630081870614902"></circle><circle r="6.130060145609815" cx="64.32922551900076" cy="68.37400912239089" opacity="0.5974930895992341"></circle><circle r="8.170403860250364" cx="374.5682529666349" cy="297.8867033285939" opacity="0.4855648237165434"></circle><circle r="9.611662806059037" cx="348.4575663093991" cy="76.37028376339848" opacity="0.17532635069964234"></circle><circle r="14.034933377083412" cx="642.1512947335125" cy="385.71851947053943" opacity="0.23909279485521479"></circle><circle r="9.741337273198264" cx="439.22294125391636" cy="388.34706582692763" opacity="0.5926488350413658"></circle><circle r="7.726547832152674" cx="253.89723885132778" cy="126.24943123280092" opacity="0.3030331141133942"></circle><circle r="6.442400531429977" cx="211.3569673343931" cy="645.4936782875053" opacity="0.8778420244304547"></circle><circle r="11.935915959449098" cx="625.5507052464211" cy="715.607313150245" opacity="0.5266232248633863"></circle><circle r="7.6292823955786675" cx="231.0673341693088" cy="559.958186547857" opacity="0.2999826712634647"></circle><circle r="9.552765361049794" cx="196.28450066860256" cy="682.945145021642" opacity="0.9206823896613715"></circle><circle r="17.811854851968093" cx="483.62442483553485" cy="761.2867084203938" opacity="0.5817835194828769"></circle><circle r="8.85938908797895" cx="453.591035023191" cy="252.313756698059" opacity="0.2621486947005761"></circle><circle r="10.633218786974643" cx="43.091304536639036" cy="427.66706675469317" opacity="0.2752647347177084"></circle><circle r="7.6835871085707845" cx="675.565553093074" cy="456.7195126518239" opacity="0.6179835127131321"></circle><circle r="9.369016967706713" cx="515.2569977971102" cy="90.65702648692547" opacity="0.6073603196872618"></circle><circle r="10.744316764174517" cx="770.6012938853931" cy="415.86237157748445" opacity="0.13600802077133417"></circle><circle r="7.595773782526647" cx="251.86154766053892" cy="637.7918443012124" opacity="0.21658764136927774"></circle><circle r="9.535081720786582" cx="676.7825622438476" cy="735.8966204992151" opacity="0.6860614951807344"></circle><circle r="11.197394804129324" cx="202.88669091829874" cy="416.13950972688497" opacity="0.7289951325984061"></circle><circle r="9.624390170138321" cx="622.8504424606864" cy="565.8974080659783" opacity="0.48829835237898866"></circle><circle r="7.288416337836772" cx="769.3160157354839" cy="781.4750365246166" opacity="0.9117248179066825"></circle><circle r="10.353277014177788" cx="702.3684793592009" cy="365.8827362607731" opacity="0.593915259007146"></circle><circle r="7.899215771468118" cx="710.6252491072696" cy="779.9489914725572" opacity="0.5748472539021235"></circle><circle r="5.677485584430439" cx="712.3878460228426" cy="532.3311034132464" opacity="0.7677509188244461"></circle><circle r="11.202519367508287" cx="587.4875354304604" cy="674.7129881549364" opacity="0.789236321975115"></circle><circle r="8.886908502593338" cx="516.2093261702969" cy="304.01049367510046" opacity="0.5308543229171928"></circle><circle r="8.15424088024295" cx="206.8938412625364" cy="605.3107011153058" opacity="0.756456962341977"></circle><circle r="11.833390102811945" cx="602.4026609288231" cy="501.8764421818147" opacity="0.6858726182333467"></circle><circle r="9.849125106412437" cx="115.05713934229183" cy="247.40594926624206" opacity="0.34531193439788577"></circle><circle r="6.061766636456483" cx="544.708915904019" cy="636.4159624647692" opacity="0.8943034449989942"></circle><circle r="6.060267007484581" cx="128.1133359924182" cy="303.0819889327021" opacity="0.37157508779298065"></circle><circle r="9.748065662636904" cx="99.91648842787778" cy="751.1165739772687" opacity="0.48617722516855055"></circle><circle r="12.484817533671013" cx="475.7991764155218" cy="122.9122764075359" opacity="0.1799697026519191"></circle><circle r="5.8131199734441905" cx="90.86671689816741" cy="22.2717998054079" opacity="0.333916913671377"></circle><circle r="8.191634643743912" cx="572.5783248591134" cy="100.43883561014343" opacity="0.7177578459441276"></circle><circle r="10.653118156839923" cx="741.6413940617592" cy="639.3441138564451" opacity="0.836895958249008"></circle><circle r="7.387517876240231" cx="557.2997193679884" cy="474.0923439230553" opacity="0.9092272505823121"></circle><circle r="14.539873466739074" cx="763.7726399991143" cy="203.68602896173496" opacity="0.6940460750971297"></circle><circle r="6.924953155817761" cx="761.1161827949634" cy="331.0613090320059" opacity="0.800432013620445"></circle><circle r="10.361918752732274" cx="531.6390447481241" cy="702.6608273909721" opacity="0.5114304695049723"></circle><circle r="5.68375267762708" cx="588.2662197268667" cy="133.93684859297804" opacity="0.2970941654259961"></circle><circle r="11.487702487688072" cx="186.59628511727482" cy="263.4024190356186" opacity="0.2802270352271561"></circle><circle r="9.768003710520556" cx="297.09073836799774" cy="65.55889347792166" opacity="0.6829311963753558"></circle><circle r="6.443211182645275" cx="19.636704278910468" cy="299.82597249494427" opacity="0.42775183978352105"></circle><circle r="6.616542757208944" cx="344.6946106135779" cy="642.2202268709946" opacity="0.6652529465498803"></circle><circle r="10.300589327322836" cx="382.2858052673206" cy="607.9013548713767" opacity="0.8592994837429669"></circle><circle r="13.928666907991259" cx="32.386156648739494" cy="559.3308446671579" opacity="0.3554730828753545"></circle><circle r="5.333189829416068" cx="127.51004192365608" cy="528.1992683766318" opacity="0.9999941258336148"></circle><circle r="8.18333145398271" cx="117.34690240994554" cy="583.8208637312467" opacity="0.9672081828393145"></circle><circle r="7.561057835324579" cx="150.53222029816877" cy="557.2213096542081" opacity="0.8767731428781963"></circle><circle r="9.825787994699859" cx="704.9004064105839" cy="605.3556015413518" opacity="0.10585087338515296"></circle><circle r="8.436759160465416" cx="61.92849165806573" cy="780.4219823238782" opacity="0.6262950921613792"></circle><circle r="9.178422163917674" cx="419.5564600332138" cy="572.5364071392892" opacity="0.5430147166554702"></circle><circle r="4.237833243656865" cx="709.8551059026648" cy="562.9149186733886" opacity="0.6706635585675538"></circle><circle r="8.309274047815773" cx="666.4729517140951" cy="647.7274677853726" opacity="0.45883020468449154"></circle><circle r="5.3067928284552215" cx="445.7669105519845" cy="335.82681777337996" opacity="0.4395043032587289"></circle><circle r="10.471672489162312" cx="132.40580187367144" cy="60.08115432421228" opacity="0.9277905789822741"></circle><circle r="7.275257714231703" cx="518.0991863095072" cy="251.44687069141173" opacity="0.6662203827606689"></circle><circle r="10.806646957994637" cx="234.6590481937984" cy="320.9187451284195" opacity="0.10342939024488451"></circle><circle r="8.78577745084747" cx="452.72033580817816" cy="450.53739980242875" opacity="0.9622151175710004"></circle><circle r="10.120591056606802" cx="380.6993218850787" cy="681.8799903483673" opacity="0.6398021774088251"></circle><circle r="7.983900085824283" cx="134.33325804241986" cy="413.3510251969821" opacity="0.5880283158954558"></circle><circle r="6.054360796525563" cx="17.82200115420926" cy="681.1736754552038" opacity="0.28883263589164604"></circle><circle r="6.319417895477287" cx="388.99520909278476" cy="54.44016172147942" opacity="0.13212084328583334"></circle><circle r="6.154158772015573" cx="167.01674396170912" cy="323.7108332882311" opacity="0.4483356651140067"></circle><circle r="7.410565306444589" cx="614.667848584527" cy="626.7665230371911" opacity="0.49312475323740623"></circle><circle r="10.16999137765945" cx="290.9247287627399" cy="656.5195773580618" opacity="0.8558795188703145"></circle><circle r="8.602700098499106" cx="267.19555172700336" cy="22.34463927309213" opacity="0.5033749254943461"></circle><circle r="11.977289060545496" cx="459.56663641374047" cy="179.15006382724846" opacity="0.27821397032787853"></circle><circle r="11.85718609513407" cx="602.7812404681902" cy="251.58968486531072" opacity="0.15630282760684516"></circle><circle r="7.875212614305285" cx="365.37490497287496" cy="147.94718675234847" opacity="0.544190334888354"></circle><circle r="10.475101516924035" cx="86.36483017779082" cy="453.55469873510543" opacity="0.23929416020585179"></circle><circle r="12.541169875369743" cx="725.5232391652759" cy="157.69824549721793" opacity="0.9445739521068758"></circle><circle r="13.167137653339186" cx="386.0917267049754" cy="357.2434390838272" opacity="0.8668932736510518"></circle><circle r="11.15542808978235" cx="320.2133192348149" cy="23.606176998194158" opacity="0.8669350770781915"></circle><circle r="5.339560293627931" cx="215.57499134645465" cy="131.10032376605247" opacity="0.12645677964720622"></circle><circle r="15.613353759677857" cx="705.2763767776593" cy="297.24310378656423" opacity="0.13324392415398567"></circle><circle r="10.005386126529919" cx="775.1194016879406" cy="466.2174179274126" opacity="0.7686601019341763"></circle><circle r="8.58007435844252" cx="322.3219688708939" cy="512.970396494853" opacity="0.38326564148851094"></circle><circle r="5.1884614819654225" cx="43.42153653903946" cy="648.9314713490309" opacity="0.2923522389947609"></circle><circle r="6.16855365667785" cx="90.56270514513953" cy="689.7114404891904" opacity="0.7449298274550334"></circle><circle r="6.306930289333939" cx="507.13774615848445" cy="578.8696536677359" opacity="0.8671857146131402"></circle><circle r="7.3069754213089" cx="382.257876324147" cy="15.796728942993301" opacity="0.2410509776641592"></circle><circle r="16.767919508985777" cx="685.2047830470742" cy="233.9772582473264" opacity="0.24993609089468657"></circle><circle r="7.225255460864359" cx="211.71530037411995" cy="356.46373835074235" opacity="0.8509633104207474"></circle><circle r="13.675343402841762" cx="419.06887420949766" cy="106.0911966752813" opacity="0.6513947581885154"></circle><circle r="11.477340696667198" cx="174.46103644140226" cy="29.311204449845576" opacity="0.17150230119227408"></circle><circle r="5.2843591853902385" cx="49.5662965467845" cy="359.2738796659" opacity="0.13144969140336762"></circle><circle r="5.63137483827822" cx="182.03399536096683" cy="514.8061091340786" opacity="0.334489811155224"></circle><circle r="8.789473770923388" cx="169.75161399629818" cy="623.6195023741832" opacity="0.9957000447663272"></circle><circle r="7.896318505010805" cx="240.92924482903615" cy="78.96372749037337" opacity="0.16390271558012873"></circle><circle r="7.866305853741968" cx="26.35800333955856" cy="24.688156719318947" opacity="0.6258231071561245"></circle><circle r="13.372731669490461" cx="214.12779651112814" cy="765.1748016679533" opacity="0.9612662609513153"></circle><circle r="8.605677745513141" cx="58.20574928906462" cy="717.694891310731" opacity="0.4655430319371612"></circle><circle r="5.342528317183552" cx="314.5662250956326" cy="394.31944637994195" opacity="0.7496637794655389"></circle><circle r="7.776661567710155" cx="396.02636908963484" cy="415.2185008837864" opacity="0.6644701843159145"></circle><circle r="9.405766245458583" cx="295.72935589934724" cy="447.838114436936" opacity="0.29918432547704105"></circle><circle r="7.210436209905759" cx="463.91487472368533" cy="584.7903347446767" opacity="0.13158186555462761"></circle><circle r="9.322116339812862" cx="252.12874087842684" cy="599.0736807586237" opacity="0.1296589321692069"></circle><circle r="7.7335398699292295" cx="240.67287141464627" cy="454.19961707698616" opacity="0.6308488137318118"></circle><circle r="11.255859002283534" cx="768.1611598177083" cy="269.41724893923913" opacity="0.1035404186876012"></circle><circle r="8.387238403366371" cx="572.7955259529223" cy="540.8407653314007" opacity="0.7882191498607958"></circle><circle r="13.17995477501436" cx="305.54186385504914" cy="601.8730546651024" opacity="0.5078512801701562"></circle><circle r="7.876670134458095" cx="663.3859205036487" cy="586.6892179241197" opacity="0.7946289626386077"></circle><circle r="11.3975932067714" cx="451.89021866152206" cy="514.7887379477606" opacity="0.25450780115206695"></circle><circle r="10.460000368349782" cx="710.4598454176802" cy="91.6254409274476" opacity="0.2739455445516777"></circle><circle r="7.475111290338423" cx="136.01037274828752" cy="671.2563179355662" opacity="0.5318381113990144"></circle><circle r="9.3625781841877" cx="727.1842585392213" cy="488.917326961461" opacity="0.3294765673173474"></circle><circle r="8.777461577859476" cx="651.6950291880382" cy="525.531551988417" opacity="0.2679389177656807"></circle><circle r="7.018102538324544" cx="252.35349489658626" cy="221.85825451755107" opacity="0.681946922823812"></circle><circle r="12.351600571263074" cx="726.7334340364898" cy="732.176233355952" opacity="0.4583484168413764"></circle><circle r="7.290157677377271" cx="355.20827382932373" cy="470.73702728278914" opacity="0.46156052262657343"></circle><circle r="17.04459405404466" cx="632.2474817798108" cy="308.62216880092257" opacity="0.9258385057442504"></circle><circle r="10.523845440641875" cx="769.5189096805008" cy="684.8886225543638" opacity="0.4595166463343633"></circle><circle r="11.499128371317827" cx="275.0602254878754" cy="348.41402184611877" opacity="0.2759015778923215"></circle><circle r="12.247348040885688" cx="498.06802513759004" cy="369.8970817171294" opacity="0.9858863712190726"></circle><circle r="8.074068099224446" cx="650.8205488975149" cy="117.46110012853946" opacity="0.7766297931420401"></circle><circle r="5.423231404434017" cx="575.7663521488142" cy="580.3318989682977" opacity="0.4905428792871197"></circle><circle r="10.760170319522924" cx="720.3609163359866" cy="430.37268227887216" opacity="0.37713742942131623"></circle><circle r="9.967029462298019" cx="368.197587230879" cy="244.83904376147837" opacity="0.5406270515362516"></circle><circle r="9.465920730881715" cx="20.107871152029933" cy="753.8740707498613" opacity="0.9153889380813128"></circle><circle r="5.25586336568027" cx="238.0361876252507" cy="687.8323622469013" opacity="0.36313931856907045"></circle><circle r="7.994977395429112" cx="622.5657426227077" cy="449.37151359699254" opacity="0.36792140315862887"></circle><circle r="5.226231159317563" cx="337.17769788501914" cy="117.2133240946481" opacity="0.468661985972201"></circle><circle r="9.31036311642309" cx="765.3307477886751" cy="34.889786859885035" opacity="0.3478353808797263"></circle><circle r="7.334798509343562" cx="38.80558521546851" cy="164.48608415686624" opacity="0.508283160848616"></circle><circle r="7.084532204578268" cx="522.3231079367805" cy="162.44386983886122" opacity="0.17164630189036412"></circle><circle r="15.959635781652617" cx="626.5229603309813" cy="47.859541890397196" opacity="0.21210147665620138"></circle><circle r="7.613432103828689" cx="225.36938105403604" cy="505.97169827210126" opacity="0.6617355879712573"></circle><circle r="14.66672071703986" cx="459.56497072359934" cy="37.8369966832781" opacity="0.28004663823927034"></circle><circle r="7.511681654287388" cx="346.6336052685076" cy="561.7167970969632" opacity="0.6294223142498989"></circle><circle r="9.0022766813294" cx="775.956828692982" cy="371.89349831681284" opacity="0.2544982322237006"></circle><circle r="10.750783346812575" cx="274.3540411062267" cy="492.79460029632054" opacity="0.8931688438761471"></circle><circle r="7.42822214072314" cx="622.753248562888" cy="200.95929825345098" opacity="0.66718532039297"></circle><circle r="9.215549443952195" cx="309.7883042520681" cy="305.42326725115515" opacity="0.9496360931235799"></circle><circle r="8.65829072926103" cx="142.47661323180705" cy="782.3525767891138" opacity="0.5595509679794671"></circle><circle r="8.978356929408704" cx="221.08029867693543" cy="36.50262237809346" opacity="0.4210303985169922"></circle><circle r="4.78995801916649" cx="127.65328223116123" cy="710.6625261614511" opacity="0.7004719924246261"></circle><circle r="9.316796086848482" cx="106.42532829899663" cy="125.311540418194" opacity="0.562552196797132"></circle><circle r="8.432202463741291" cx="694.1789904657621" cy="686.0373808819486" opacity="0.9294564175680613"></circle><circle r="6.991986611417086" cx="40.94135246875044" cy="117.49964289465736" opacity="0.6059545002881354"></circle><circle r="10.816932077463612" cx="777.2747966388943" cy="740.5995310091484" opacity="0.129866856692744"></circle><circle r="7.780453114149496" cx="62.22662281787735" cy="610.2456142340822" opacity="0.743769822333845"></circle><circle r="8.287647502166152" cx="774.8180827034743" cy="111.92914121571062" opacity="0.9736819119346515"></circle><circle r="7.737760980051216" cx="133.76444736547194" cy="480.2810602020553" opacity="0.8931909821517858"></circle><circle r="9.99565937231904" cx="537.8610549207464" cy="20.732381715242656" opacity="0.20752313479043674"></circle><circle r="8.033461863422492" cx="342.29509670085235" cy="424.69712755615745" opacity="0.6610248808934127"></circle><circle r="9.956042025261919" cx="187.22800691578544" cy="567.0489421523441" opacity="0.7445433160206635"></circle><circle r="4.6511429677731115" cx="782.571244168769" cy="601.7079716376987" opacity="0.4666240894643767"></circle><circle r="7.112450558753018" cx="80.53535313948402" cy="382.89442429727575" opacity="0.30528446484576366"></circle></g></svg>